<svg width="29" height="31" viewBox="0 0 29 31" fill="none" xmlns="http://www.w3.org/2000/svg">
<path d="M13.9669 0.853516C9.91568 0.853516 6.2129 2.67056 4.33974 6.46983H3.86056V1.47296H0.332031V14.8117C0.332031 16.2158 1.55177 17.3721 3.03288 17.3721H13.9669V14.2336H4.29618V13.1598C4.42686 7.83261 8.12964 4.15723 13.7491 4.15723C20.0221 4.15723 23.9426 8.86502 23.9426 15.9267C23.9426 22.9884 19.7607 27.6962 13.5313 27.6962C9.87212 27.6962 6.64852 25.714 4.90604 22.369L1.42108 24.1034C3.64275 28.3982 8.12964 30.9999 13.5313 30.9999C22.113 30.9999 28.081 24.8467 28.081 15.9267C28.081 7.00668 22.5051 0.853516 13.9669 0.853516Z" fill="black"/>
</svg>
