<svg width="160" height="45" viewBox="0 0 160 45" fill="none" xmlns="http://www.w3.org/2000/svg">
<g clip-path="url(#clip0)">
<path d="M5.76328 4.83788H4.79209V4.7227C5.77606 4.40273 6.46612 3.55802 6.46612 2.53413C6.46612 1.12628 5.52049 0 3.39919 0H0V8.95904H1.17566V5.46502H5.35436C5.36714 5.46502 5.37992 5.47782 5.37992 5.49061V8.95904H6.55558V5.6442C6.55558 5.11945 6.27444 4.83788 5.76328 4.83788ZM1.17566 4.47952V0.998294H3.28418C4.88154 0.998294 5.3288 1.77901 5.3288 2.73891C5.3288 3.7116 4.65152 4.47952 3.24584 4.47952H1.17566Z" fill="black"/>
<path d="M81.9245 7.93515H79.9055V1.02389H81.9245V0H76.7363V1.02389H78.7554V7.93515H76.7363V8.95905H81.9245V7.93515Z" fill="black"/>
<path d="M30.8093 7.93515H28.7903V1.02389H30.8093V0H25.6211V1.02389H27.6402V7.93515H25.6211V8.95905H30.8093V7.93515Z" fill="black"/>
<path d="M54.8085 8.95905L57.671 0H56.457L53.8885 8.20393H53.684L51.1027 0H49.8887L52.7384 8.95905H54.8085Z" fill="black"/>
<path d="M131.443 4.83788H130.472V4.7227C131.456 4.40273 132.146 3.55802 132.146 2.53413C132.146 1.12628 131.2 0 129.079 0H125.68V8.95905H126.855V5.46502H131.034C131.047 5.46502 131.06 5.47782 131.06 5.49061V8.95905H132.235V5.6442C132.235 5.11945 131.954 4.83788 131.443 4.83788ZM126.855 4.47952V0.998294H128.964C130.561 0.998294 131.008 1.77901 131.008 2.73891C131.008 3.7116 130.331 4.47952 128.926 4.47952H126.855Z" fill="black"/>
<path d="M153.501 5.83618H157.04L158.05 8.95905H159.29L156.325 0H154.267L151.303 8.95905H152.478L153.501 5.83618ZM155.149 0.75512H155.379L156.721 4.87628H153.807L155.149 0.75512Z" fill="black"/>
<path d="M101.004 8.95905H106.614V7.93515H102.18V4.99147H106V3.96758H102.18V1.01109H106.614V0H101.004V8.95905Z" fill="black"/>
<path d="M28.1521 35.6572C26.9637 35.6572 25.8775 36.2204 25.328 37.3978H25.1874V35.8492H24.1523V39.9832C24.1523 40.4183 24.5102 40.7767 24.9446 40.7767H28.1521V39.804H25.3152V39.4712C25.3536 37.8202 26.4398 36.6811 28.0883 36.6811C29.9284 36.6811 31.0785 38.1402 31.0785 40.3287C31.0785 42.5173 29.8517 43.9763 28.0244 43.9763C26.9509 43.9763 26.0053 43.362 25.4941 42.3253L24.4718 42.8629C25.1235 44.1939 26.4398 45.0002 28.0244 45.0002C30.5418 45.0002 32.2925 43.0932 32.2925 40.3287C32.2925 37.5642 30.6568 35.6572 28.1521 35.6572Z" fill="black"/>
<path d="M0.472656 36.873H4.90693V39.8167H1.08604V40.8406H4.90693V43.7971H0.472656V44.8082H6.08259V35.8491H0.472656V36.873Z" fill="black"/>
<path d="M126.371 36.873H128.39V43.7843H126.371V44.8082H131.559V43.7843H129.54V36.873H131.559V35.8491H126.371V36.873Z" fill="black"/>
<path d="M55.5759 38.972H52.0362L51.0267 35.8491H49.7871L52.7518 44.8082H54.8092L57.7739 35.8491H56.5983L55.5759 38.972ZM53.9275 44.053H53.6975L52.3557 39.9319H55.2693L53.9275 44.053Z" fill="black"/>
<path d="M154.267 35.8491L151.404 44.8082H152.618L155.187 36.6042H155.391L157.973 44.8082H159.187L156.337 35.8491H154.267Z" fill="black"/>
<path d="M81.3253 35.8491H76.5332V36.873H80.9419C80.9675 36.873 80.9803 36.8858 80.9803 36.9114V44.8082H82.1304V36.6554C82.1304 36.2203 81.7726 35.8491 81.3253 35.8491Z" fill="black"/>
<path d="M105.796 35.8491H101.004V36.873H105.413C105.438 36.873 105.451 36.8858 105.451 36.9114V44.8082H106.601V36.6554C106.601 36.2203 106.243 35.8491 105.796 35.8491Z" fill="black"/>
</g>
<defs>
<clipPath id="clip0">
<rect width="159.289" height="45" fill="white"/>
</clipPath>
</defs>
</svg>
