<svg width="9" height="9" viewBox="0 0 9 9" fill="none" xmlns="http://www.w3.org/2000/svg">
<path fill-rule="evenodd" clip-rule="evenodd" d="M0.495089 8.50363C0.22112 8.22966 0.22112 7.78547 0.495089 7.5115L7.51052 0.496076C7.78449 0.222106 8.22868 0.222107 8.50265 0.496076C8.77662 0.770045 8.77662 1.21424 8.50265 1.48821L1.48722 8.50363C1.21325 8.7776 0.769058 8.7776 0.495089 8.50363Z" fill="white"/>
<path fill-rule="evenodd" clip-rule="evenodd" d="M0.495145 0.49631C0.769115 0.22234 1.21331 0.22234 1.48728 0.49631L8.5027 7.51174C8.77667 7.78571 8.77667 8.2299 8.5027 8.50387C8.22873 8.77784 7.78454 8.77784 7.51057 8.50387L0.495145 1.48844C0.221176 1.21447 0.221176 0.770279 0.495145 0.49631Z" fill="white"/>
</svg>
