<svg width="12" height="12" viewBox="0 0 12 12" fill="none" xmlns="http://www.w3.org/2000/svg">
<path fill-rule="evenodd" clip-rule="evenodd" d="M0.661414 11.338C0.296125 10.9728 0.296125 10.3805 0.661414 10.0152L10.0152 0.661417C10.3805 0.296128 10.9728 0.296128 11.338 0.661417C11.7033 1.02671 11.7033 1.61896 11.338 1.98424L1.98424 11.338C1.61895 11.7033 1.0267 11.7033 0.661414 11.338Z" fill="#04151F"/>
<path fill-rule="evenodd" clip-rule="evenodd" d="M0.661584 0.661536C1.02687 0.296247 1.61912 0.296247 1.98441 0.661536L11.3382 10.0153C11.7035 10.3806 11.7035 10.9729 11.3382 11.3382C10.9729 11.7035 10.3807 11.7035 10.0154 11.3382L0.661584 1.98436C0.296295 1.61907 0.296295 1.02682 0.661584 0.661536Z" fill="#04151F"/>
</svg>
