<svg width="185" height="94" viewBox="0 0 185 94" fill="none" xmlns="http://www.w3.org/2000/svg">
<path d="M64.8845 92.9524C53.0154 86.9439 32.3368 61.1548 27.4836 54.5613L27.2198 54.136C27.1671 53.6042 27.6946 53.1257 28.2221 53.1257H28.5386C31.9675 54.0828 35.6601 54.3487 39.4582 54.0828C55.8112 52.9661 73.694 41.7998 78.3889 28.1342C79.233 25.3161 79.6022 22.8701 79.4967 20.7432C78.8109 10.1617 66.0978 7.18399 52.0131 8.1411C34.0776 9.36409 14.1374 17.021 14.6122 23.9336C14.665 24.4653 14.7705 25.1034 15.1397 25.5819C17.7773 30.3143 25.6373 31.1651 26.1648 39.6197C26.3758 41.9061 26.0066 44.6711 24.8988 48.3933L42.4123 19.8392C42.5178 19.5202 42.7816 19.4138 42.9926 19.3607C43.5201 19.3075 43.9421 19.7329 43.9949 20.2646L43.9421 20.7963L15.298 67.8015C9.38979 77.5322 4.27288 86.0399 1.58255 91.1977C1.42429 91.6231 1.10778 91.7826 0.791275 91.7826C0.474765 91.7826 0.0527516 91.5167 0 90.985L0.158255 90.4533C3.05959 84.8701 8.54577 75.3521 14.876 64.7174C22.3667 52.0622 24.635 44.6711 24.3185 39.9387C23.791 32.2286 16.5113 31.5373 13.6627 26.539C13.1879 25.7415 12.9242 24.8907 12.8714 24.1463C12.3439 15.7981 32.8115 7.50303 51.5911 6.28004C66.6781 5.26975 80.6045 8.77918 81.3958 20.5305C81.554 22.8701 81.1848 25.6351 80.1297 28.7723C75.1711 43.2354 56.5498 54.8804 39.5637 55.997C36.5041 56.2097 33.4445 56.1034 30.5959 55.5185C36.4514 63.0691 54.809 86.0399 65.623 91.5168C65.9396 91.7294 66.0978 91.9953 66.0978 92.208C66.1506 92.6334 65.834 92.9524 65.412 93.0056L64.8845 92.9524Z" fill="white"/>
<path d="M110.831 87.7948L110.62 86.1996C109.565 69.9286 126.288 15.5324 125.76 7.60957L125.602 7.07784C125.443 6.65245 125.021 6.49293 124.494 6.49293C119.272 6.86515 98.2236 20.3711 99.0677 33.3986C99.2259 36.0573 100.228 38.5032 102.497 40.6833C102.708 40.896 102.813 41.1087 102.866 41.3214C102.919 41.8531 102.391 42.3317 101.969 42.3317C101.652 42.3317 101.441 42.2785 101.23 42.0658C98.6456 39.5667 97.4851 36.6953 97.3269 33.6113C96.4301 19.8926 116.739 5.42947 124.494 4.89774C125.865 4.79139 126.815 5.26995 127.343 6.38659L127.501 7.23736C128.134 16.649 111.359 70.1945 112.361 85.9338L112.572 87.4226C112.836 88.5924 113.416 89.2837 114.471 89.2305L115.104 89.071C117.794 88.4861 125.391 77.2133 135.466 62.1121C149.92 40.577 164.532 17.553 183.47 0.271664C183.681 0.0589712 183.892 0.0589712 184.103 0.00579793C184.525 -0.0473753 184.947 0.271664 185 0.69705C185 0.909743 184.947 1.12244 184.631 1.33513C165.851 18.5101 151.397 41.6404 136.996 63.2288C126.657 78.7022 118.955 90.2408 115.526 90.9852L114.577 91.1447C112.519 91.3043 111.306 90.0813 110.831 87.7948Z" fill="white"/>
</svg>
