<svg width="1440" height="1508" viewBox="0 0 1440 1508" fill="none" xmlns="http://www.w3.org/2000/svg">
<path opacity="0.1" d="M1329.49 328.08C1354.89 373.199 1357.99 428.107 1341.78 488.815C1325.57 549.526 1290.05 616.003 1238.27 684.206C1134.7 820.611 966.12 963.837 757.077 1081.53C548.034 1199.22 338.147 1269.08 167.807 1286.89C82.636 1295.79 7.37668 1291.68 -52.9386 1274.06C-113.251 1256.43 -158.588 1225.3 -183.99 1180.18C-209.393 1135.06 -212.495 1080.16 -196.285 1019.45C-180.074 958.738 -144.556 892.26 -92.77 824.057C10.8 687.653 179.377 544.426 388.42 426.733C597.463 309.04 807.35 239.187 977.69 221.378C1062.86 212.473 1138.12 216.582 1198.44 234.208C1258.75 251.832 1304.09 282.962 1329.49 328.08Z" stroke="black"/>
</svg>
