<svg width="1053" height="1076" viewBox="0 0 1053 1076" fill="none" xmlns="http://www.w3.org/2000/svg">
<path opacity="0.15" d="M1536.49 112.08C1561.89 157.199 1564.99 212.106 1548.78 272.814C1532.57 333.525 1497.05 400.003 1445.27 468.206C1341.7 604.61 1173.12 747.837 964.077 865.53C755.034 983.223 545.147 1053.08 374.807 1070.89C289.636 1079.79 214.377 1075.68 154.061 1058.06C93.7492 1040.43 48.4121 1009.3 23.0098 964.183C-2.39251 919.064 -5.49499 864.156 10.7151 803.448C26.9261 742.738 62.4445 676.26 114.23 608.057C217.8 471.652 386.377 328.426 595.42 210.732C804.463 93.0391 1014.35 23.1867 1184.69 5.37725C1269.86 -3.52763 1345.12 0.581169 1405.44 18.207C1465.75 35.832 1511.09 66.9612 1536.49 112.08Z" stroke="white"/>
</svg>
