<svg width="242" height="111" viewBox="0 0 242 111" fill="none" xmlns="http://www.w3.org/2000/svg">
<path d="M111.405 56.5857C104.147 52.9279 91.5039 37.2286 88.5366 33.2148L88.4076 32.9558C88.3753 32.6321 88.6979 32.3408 89.0204 32.3408H89.2139C91.3104 32.9235 93.5682 33.0853 95.8904 32.9235C105.889 32.2437 116.823 25.4461 119.694 17.1271C120.21 15.4115 120.436 13.9225 120.371 12.6277C119.952 6.18613 112.179 4.37343 103.567 4.95609C92.6006 5.70059 80.4086 10.3618 80.6989 14.5699C80.7312 14.8936 80.7957 15.282 81.0215 15.5733C82.6341 18.4542 87.44 18.9721 87.7625 24.1189C87.8593 25.5432 87.6335 27.2264 86.9562 29.4599L97.6644 12.0774C97.7289 11.8832 97.8902 11.8185 98.0192 11.7861C98.3417 11.7537 98.5998 12.0127 98.632 12.3364L98.5998 12.6601L81.1182 41.2748C77.5058 47.1985 74.3772 52.3776 72.7322 55.5175C72.6355 55.7764 72.442 55.8736 72.2484 55.8736C72.0549 55.8736 71.7969 55.7117 71.7646 55.388L71.8614 55.0643C73.6353 51.6655 76.9897 45.8713 80.8602 39.3974C85.4402 31.661 86.8271 27.1617 86.6336 24.2808C86.3111 19.5872 81.8601 19.1664 80.1184 16.1236C79.8281 15.6381 79.6668 15.1202 79.6345 14.667C79.312 9.58495 91.8265 4.53528 103.309 3.79078C112.533 3.17576 121.048 5.31215 121.532 12.4658C121.629 13.8901 121.403 15.5733 120.758 17.4831C117.726 26.2877 106.341 33.3766 95.955 34.0564C94.0842 34.1859 92.2135 34.1211 90.4718 33.7651C94.052 38.3616 105.276 52.3453 111.888 55.6793C112.082 55.8088 112.179 55.9707 112.179 56.1001C112.211 56.3591 112.017 56.5533 111.759 56.5857H111.405Z" fill="white"/>
<path d="M139.465 53.4458L139.336 52.4747C138.691 42.5696 148.916 9.45547 148.593 4.63239L148.496 4.30869C148.432 4.04974 148.142 3.95263 147.819 3.95263C144.626 4.17921 131.757 12.4011 132.273 20.3317C132.369 21.9502 132.982 23.4392 134.369 24.7663C134.498 24.8958 134.563 25.0253 134.595 25.1547C134.627 25.4784 134.305 25.7698 134.047 25.7698C133.853 25.7698 133.724 25.7374 133.595 25.6079C132.015 24.0865 131.305 22.3386 131.208 20.4611C130.66 12.1098 143.078 3.30523 147.819 2.98154C148.658 2.9168 149.238 3.20813 149.561 3.88789L149.657 4.4058C150.045 10.1352 139.788 42.7315 140.401 52.3129L140.53 53.2192C140.691 53.9314 141.046 54.3522 141.691 54.3198L142.078 54.2227C143.723 53.8666 148.367 47.0043 154.528 37.8113C163.398 24.7016 172.3 10.6855 183.911 0.165378C184.04 0.0358992 184.169 0.0358992 184.298 0.00352954C184.556 -0.0288401 184.814 0.165378 184.846 0.424335C184.846 0.553814 184.814 0.683292 184.621 0.812771C173.138 11.2682 164.301 25.349 155.495 38.491C149.174 47.9106 144.465 54.9348 142.368 55.388L141.788 55.4851C140.53 55.5822 139.756 54.8377 139.465 53.4458Z" fill="white"/>
<path d="M2.48354 82.449L8.48274 109.801H9.28908L15.4496 82.449H20.7714L26.9319 109.801H27.7382L33.7374 82.449H36.221L29.996 110.611H24.6741L18.5137 83.2583H17.7073L11.5468 110.611H6.19272L0 82.449H2.48354Z" fill="white"/>
<path d="M45.4456 82.449H62.282V84.6825H48.0904V95.3969H60.3145V97.6304H48.0904V108.377H62.282V110.611H45.4456V82.449Z" fill="white"/>
<path d="M72.7322 108.798V82.449H75.3448V108.766L89.5687 108.377V110.611L74.9255 110.999C73.5063 111.031 72.7322 110.222 72.7322 108.798Z" fill="white"/>
<path d="M99.5996 108.798V82.449H102.212V108.766L116.436 108.377V110.611L101.793 110.999C100.374 111.031 99.5996 110.222 99.5996 108.798Z" fill="white"/>
<path d="M126.435 82.449H131.821L146.916 109.801H147.69L147.303 107.827V82.449H149.948V110.611H144.561L129.467 83.2583H128.693L129.08 85.2328V110.611H126.435V82.449Z" fill="white"/>
<path d="M161.172 82.449H178.009V84.6825H163.785V95.3969H176.009V97.6304H163.785V108.377H178.009V110.611H161.172V82.449Z" fill="white"/>
<path d="M199.264 110.999C189.555 110.999 186.846 106.597 186.846 100.123H189.459C189.459 107.244 193.265 108.766 199.264 108.766C204.166 108.766 207.198 107.568 207.198 103.813C207.198 99.087 201.941 98.2131 197.393 96.9183C191.942 95.3322 188.104 93.8108 188.104 88.923C188.104 84.6825 190.975 82.0606 197.812 82.0606C206.005 82.0606 208.65 87.2397 208.65 91.642H206.037C206.037 86.6247 202.296 84.2941 197.845 84.2941C193.781 84.2941 190.749 85.3299 190.749 88.7611C190.749 92.0628 193.587 93.2281 198.199 94.6848C203.779 96.4004 209.811 97.7599 209.811 103.619C209.811 107.697 207.488 110.999 199.264 110.999Z" fill="white"/>
<path d="M231.453 110.999C221.745 110.999 219.035 106.597 219.035 100.123H221.648C221.648 107.244 225.454 108.766 231.453 108.766C236.356 108.766 239.387 107.568 239.387 103.813C239.387 99.087 234.13 98.2131 229.582 96.9183C224.131 95.3322 220.293 93.8108 220.293 88.923C220.293 84.6825 223.164 82.0606 230.002 82.0606C238.194 82.0606 240.839 87.2397 240.839 91.642H238.226C238.226 86.6247 234.485 84.2941 230.034 84.2941C225.97 84.2941 222.938 85.3299 222.938 88.7611C222.938 92.0628 225.776 93.2281 230.389 94.6848C235.969 96.4004 242 97.7599 242 103.619C242 107.697 239.678 110.999 231.453 110.999Z" fill="white"/>
</svg>
