<svg width="26" height="11" viewBox="0 0 26 11" fill="none" xmlns="http://www.w3.org/2000/svg">
<circle cx="13.0625" cy="8.0625" r="2.0625" fill="white"/>
<g clip-path="url(#clip0)">
<path d="M25.8347 8.68502C25.6024 8.36728 20.0681 0.905029 12.9998 0.905029C5.93155 0.905029 0.397008 8.36728 0.164988 8.68472C-0.0549961 8.98615 -0.0549961 9.39499 0.164988 9.69643C0.397008 10.0142 5.93155 17.4764 12.9998 17.4764C20.0681 17.4764 25.6024 10.0141 25.8347 9.69669C26.055 9.3953 26.055 8.98615 25.8347 8.68502ZM12.9998 15.7621C7.7933 15.7621 3.28387 10.8093 1.94898 9.19014C3.28214 7.56956 7.78212 2.6193 12.9998 2.6193C18.2061 2.6193 22.7153 7.57129 24.0507 9.19131C22.7176 10.8118 18.2176 15.7621 12.9998 15.7621Z" fill="white"/>
</g>
<defs>
<clipPath id="clip0">
<rect width="26" height="8.17578" fill="white" transform="translate(0 0.912109)"/>
</clipPath>
</defs>
</svg>
