<svg width="112" height="54" viewBox="0 0 112 54" fill="none" xmlns="http://www.w3.org/2000/svg">
<path d="M39.2814 53.9691C32.0958 50.4805 19.5768 35.5072 16.6387 31.6789L16.479 31.4319C16.4471 31.1232 16.7665 30.8454 17.0858 30.8454H17.2774C19.3533 31.4011 21.5888 31.5554 23.8882 31.4011C33.7884 30.7527 44.6148 24.2694 47.4571 16.3351C47.9681 14.6989 48.1916 13.2787 48.1277 12.0438C47.7126 5.90008 40.016 4.1712 31.489 4.72691C20.6307 5.43699 8.55888 9.88268 8.84631 13.8962C8.87824 14.2049 8.94212 14.5754 9.16567 14.8532C10.7625 17.6009 15.521 18.0949 15.8403 23.0036C15.9681 24.3312 15.7445 25.9366 15.0739 28.0977L25.6766 11.5189C25.7405 11.3337 25.9002 11.272 26.0279 11.2411C26.3473 11.2102 26.6028 11.4572 26.6347 11.7659L26.6028 12.0747L9.26148 39.3663C5.68463 45.016 2.58683 49.9557 0.958084 52.9503C0.862275 53.1973 0.670659 53.2899 0.479042 53.2899C0.287425 53.2899 0.0319361 53.1356 0 52.8268L0.0958084 52.5181C1.8523 49.2765 5.17365 43.7502 9.00599 37.5756C13.5409 30.2279 14.9142 25.9366 14.7226 23.1889C14.4032 18.7123 9.99601 18.311 8.27146 15.4089C7.98403 14.9458 7.82435 14.4519 7.79242 14.0196C7.47305 9.17261 19.8643 4.35644 31.2335 3.64636C40.3673 3.05978 48.7984 5.09739 49.2774 11.9203C49.3733 13.2787 49.1497 14.8841 48.511 16.7056C45.509 25.103 34.2355 31.8642 23.9521 32.5125C22.0998 32.636 20.2475 32.5742 18.523 32.2346C22.0679 36.6186 33.1816 49.9557 39.7285 53.1356C39.9202 53.2591 40.016 53.4134 40.016 53.5369C40.0479 53.7839 39.8563 53.9691 39.6008 54L39.2814 53.9691Z" fill="#04151F"/>
<path d="M67.0978 50.9745L66.9701 50.0483C66.3313 40.6012 76.4551 9.01824 76.1357 4.41819L76.0399 4.10946C75.9441 3.86247 75.6886 3.76986 75.3693 3.76986C72.2076 3.98597 59.4651 11.8277 59.9761 19.3915C60.0719 20.9352 60.6786 22.3553 62.0519 23.6211C62.1796 23.7446 62.2435 23.8681 62.2754 23.9916C62.3074 24.3003 61.988 24.5782 61.7325 24.5782C61.5409 24.5782 61.4132 24.5473 61.2854 24.4238C59.7206 22.9728 59.018 21.3056 58.9222 19.515C58.3792 11.5498 70.6747 3.1524 75.3693 2.84367C76.1996 2.78192 76.7744 3.05978 77.0938 3.70811L77.1896 4.20208C77.5729 9.66657 67.4172 40.7555 68.0239 49.8939L68.1517 50.7584C68.3114 51.4376 68.6627 51.8389 69.3014 51.808L69.6846 51.7154C71.3134 51.3758 75.9122 44.8308 82.012 36.0629C90.7625 23.5594 99.6088 10.1914 111.074 0.157731C111.202 0.0342392 111.329 0.0342392 111.457 0.00336633C111.713 -0.0275065 111.968 0.157731 112 0.404714C112 0.528205 111.968 0.651696 111.776 0.775188C100.407 10.7471 91.6567 24.1768 82.9381 36.7112C76.6786 45.6952 72.016 52.3946 69.9401 52.8268L69.3653 52.9195C68.1198 53.0121 67.3852 52.302 67.0978 50.9745Z" fill="#04151F"/>
</svg>
