<svg width="70" height="35" viewBox="0 0 70 35" fill="none" xmlns="http://www.w3.org/2000/svg">
<path d="M24.5509 34.98C20.0599 32.7188 12.2355 23.0139 10.3992 20.5326L10.2994 20.3725C10.2794 20.1724 10.479 19.9923 10.6786 19.9923H10.7984C12.0958 20.3525 13.493 20.4526 14.9301 20.3525C21.1178 19.9323 27.8842 15.7302 29.6607 10.5875C29.98 9.52698 30.1197 8.60651 30.0798 7.8061C29.8203 3.82406 25.01 2.70349 19.6806 3.06367C12.8942 3.52391 5.3493 6.40538 5.52894 9.00671C5.5489 9.20681 5.58882 9.44694 5.72854 9.62703C6.72654 11.4079 9.70059 11.7281 9.90019 14.9097C9.98003 15.7702 9.84031 16.8107 9.42115 18.2114L16.0479 7.46592C16.0878 7.34586 16.1876 7.30584 16.2675 7.28583C16.4671 7.26582 16.6267 7.4259 16.6467 7.62601L16.6267 7.82611L5.78842 25.5152C3.55289 29.177 1.61677 32.3787 0.598802 34.3197C0.538922 34.4797 0.419161 34.5398 0.299401 34.5398C0.179641 34.5398 0.0199601 34.4397 0 34.2396L0.0598802 34.0395C1.15768 31.9384 3.23353 28.3566 5.62874 24.3546C8.46307 19.5921 9.32135 16.8107 9.20159 15.0298C9.00199 12.1283 6.2475 11.8682 5.16966 9.98721C4.99002 9.68706 4.89022 9.3669 4.87026 9.08675C4.67066 5.94515 12.4152 2.82355 19.5209 2.36331C25.2295 1.98312 30.499 3.30379 30.7984 7.72606C30.8583 8.60651 30.7185 9.64704 30.3193 10.8276C28.4431 16.2704 21.3972 20.6527 14.9701 21.0729C13.8124 21.1529 12.6547 21.1129 11.5768 20.8928C13.7924 23.7342 20.7385 32.3787 24.8303 34.4397C24.9501 34.5198 25.01 34.6198 25.01 34.6998C25.0299 34.8599 24.9102 34.98 24.7505 35L24.5509 34.98Z" fill="#000"/>
<path d="M41.9361 33.0391L41.8563 32.4388C41.4571 26.3156 47.7844 5.84517 47.5848 2.86365L47.525 2.66354C47.4651 2.50346 47.3054 2.44343 47.1058 2.44343C45.1298 2.5835 37.1657 7.6661 37.485 12.5686C37.5449 13.5691 37.9242 14.4896 38.7825 15.31C38.8623 15.3901 38.9022 15.4701 38.9222 15.5501C38.9421 15.7502 38.7425 15.9303 38.5828 15.9303C38.4631 15.9303 38.3832 15.9103 38.3034 15.8303C37.3254 14.8898 36.8862 13.8092 36.8264 12.6486C36.487 7.48601 44.1717 2.04323 47.1058 1.84312C47.6248 1.8031 47.984 1.9832 48.1836 2.40341L48.2435 2.72357C48.483 6.26539 42.1357 26.4157 42.515 32.3387L42.5948 32.899C42.6946 33.3392 42.9142 33.5994 43.3134 33.5794L43.5529 33.5193C44.5709 33.2992 47.4451 29.057 51.2575 23.3741C56.7265 15.27 62.2555 6.60556 69.4212 0.102233C69.501 0.0221921 69.5808 0.0221921 69.6607 0.00218189C69.8204 -0.0178283 69.98 0.102233 70 0.262315C70 0.342356 69.98 0.422397 69.8603 0.502438C62.7545 6.96574 57.2854 15.6702 51.8363 23.7943C47.9242 29.6173 45.01 33.9595 43.7126 34.2397L43.3533 34.2997C42.5749 34.3598 42.1158 33.8995 41.9361 33.0391Z" fill="#000"/>
</svg>
