<svg width="160" height="45" viewBox="0 0 160 45" fill="none" xmlns="http://www.w3.org/2000/svg">
<g clip-path="url(#clip0)">
<path d="M5.76328 4.83788H4.79209V4.7227C5.77606 4.40273 6.46612 3.55802 6.46612 2.53413C6.46612 1.12628 5.52049 0 3.39919 0H0V8.95904H1.17566V5.46502H5.35436C5.36714 5.46502 5.37992 5.47782 5.37992 5.49061V8.95904H6.55558V5.6442C6.55558 5.11945 6.27444 4.83788 5.76328 4.83788ZM1.17566 4.47952V0.998294H3.28418C4.88154 0.998294 5.3288 1.77901 5.3288 2.73891C5.3288 3.7116 4.65152 4.47952 3.24584 4.47952H1.17566Z" fill="black"/>
<path d="M81.9254 7.93515H79.9064V1.02389H81.9254V0H76.7372V1.02389H78.7563V7.93515H76.7372V8.95905H81.9254V7.93515Z" fill="black"/>
<path d="M30.8099 7.93515H28.7909V1.02389H30.8099V0H25.6217V1.02389H27.6408V7.93515H25.6217V8.95905H30.8099V7.93515Z" fill="black"/>
<path d="M54.8085 8.95905L57.671 0H56.457L53.8885 8.20393H53.684L51.1027 0H49.8887L52.7384 8.95905H54.8085Z" fill="black"/>
<path d="M131.444 4.83788H130.473V4.7227C131.457 4.40273 132.147 3.55802 132.147 2.53413C132.147 1.12628 131.201 0 129.08 0H125.681V8.95905H126.856V5.46502H131.035C131.048 5.46502 131.061 5.47782 131.061 5.49061V8.95905H132.236V5.6442C132.236 5.11945 131.955 4.83788 131.444 4.83788ZM126.856 4.47952V0.998294H128.965C130.562 0.998294 131.009 1.77901 131.009 2.73891C131.009 3.7116 130.332 4.47952 128.926 4.47952H126.856Z" fill="black"/>
<path d="M153.5 5.83618H157.04L158.049 8.95905H159.289L156.324 0H154.267L151.302 8.95905H152.478L153.5 5.83618ZM155.148 0.75512H155.378L156.72 4.87628H153.807L155.148 0.75512Z" fill="black"/>
<path d="M101.004 8.95905H106.614V7.93515H102.18V4.99147H106.001V3.96758H102.18V1.01109H106.614V0H101.004V8.95905Z" fill="black"/>
<path d="M28.1519 35.657C26.9635 35.657 25.8773 36.2201 25.3278 37.3976H25.1872V35.849H24.1521V39.9829C24.1521 40.4181 24.5099 40.7764 24.9444 40.7764H28.1519V39.8037H25.315V39.471C25.3533 37.8199 26.4395 36.6809 28.088 36.6809C29.9282 36.6809 31.0783 38.1399 31.0783 40.3285C31.0783 42.517 29.8515 43.9761 28.0241 43.9761C26.9507 43.9761 26.005 43.3618 25.4939 42.3251L24.4716 42.8626C25.1233 44.1937 26.4395 45 28.0241 45C30.5416 45 32.2923 43.093 32.2923 40.3285C32.2923 37.564 30.6566 35.657 28.1519 35.657Z" fill="black"/>
<path d="M0.472717 36.8728H4.907V39.8164H1.0861V40.8403H4.907V43.7968H0.472717V44.8079H6.08265V35.8489H0.472717V36.8728Z" fill="black"/>
<path d="M126.37 36.8728H128.39V43.784H126.37V44.8079H131.559V43.784H129.54V36.8728H131.559V35.8489H126.37V36.8728Z" fill="black"/>
<path d="M55.5753 38.9717H52.0355L51.026 35.8489H49.7864L52.7511 44.8079H54.8085L57.7732 35.8489H56.5976L55.5753 38.9717ZM53.9268 44.0528H53.6968L52.355 39.9316H55.2686L53.9268 44.0528Z" fill="black"/>
<path d="M154.267 35.8489L151.404 44.8079H152.618L155.187 36.604H155.391L157.973 44.8079H159.187L156.337 35.8489H154.267Z" fill="black"/>
<path d="M81.3249 35.8489H76.5328V36.8728H80.9415C80.9671 36.8728 80.9798 36.8856 80.9798 36.9112V44.8079H82.13V36.6552C82.13 36.22 81.7721 35.8489 81.3249 35.8489Z" fill="black"/>
<path d="M105.796 35.8489H101.004V36.8728H105.413C105.439 36.8728 105.451 36.8856 105.451 36.9112V44.8079H106.602V36.6552C106.602 36.22 106.244 35.8489 105.796 35.8489Z" fill="black"/>
</g>
<defs>
<clipPath id="clip0">
<rect width="159.289" height="45" fill="white"/>
</clipPath>
</defs>
</svg>
