<svg width="86" height="86" viewBox="0 0 86 86" fill="none" xmlns="http://www.w3.org/2000/svg">
<circle cx="43" cy="43" r="43" fill="#F7F7F7"/>
<path d="M35.2378 55.9851C31.9016 54.3054 26.0892 47.096 24.7251 45.2528L24.651 45.1339C24.6362 44.9852 24.7844 44.8514 24.9327 44.8514H25.0217C25.9855 45.119 27.0234 45.1933 28.091 45.119C32.6875 44.8069 37.714 41.6853 39.0336 37.865C39.2709 37.0772 39.3747 36.3934 39.345 35.7988C39.1523 32.8407 35.5788 32.0083 31.6199 32.2759C26.5786 32.6178 20.9738 34.7583 21.1072 36.6907C21.122 36.8393 21.1517 37.0177 21.2555 37.1515C21.9969 38.4745 24.2062 38.7123 24.3544 41.0758C24.4137 41.715 24.3099 42.488 23.9986 43.5285L28.9213 35.5461C28.9509 35.4569 29.0251 35.4272 29.0844 35.4123C29.2327 35.3975 29.3513 35.5164 29.3661 35.665L29.3513 35.8137L21.3 48.9541C19.6393 51.6744 18.201 54.0527 17.4448 55.4946C17.4003 55.6135 17.3114 55.6581 17.2224 55.6581C17.1334 55.6581 17.0148 55.5838 17 55.4351L17.0445 55.2865C17.86 53.7257 19.4021 51.0649 21.1813 48.092C23.2869 44.5542 23.9244 42.488 23.8355 41.165C23.6872 39.0096 21.641 38.8164 20.8403 37.4191C20.7069 37.1961 20.6327 36.9583 20.6179 36.7502C20.4696 34.4164 26.2227 32.0975 31.5013 31.7556C35.7419 31.4732 39.6564 32.4542 39.8788 35.7394C39.9233 36.3934 39.8195 37.1664 39.5229 38.0434C38.1292 42.0866 32.8951 45.342 28.1206 45.6541C27.2606 45.7136 26.4006 45.6839 25.5999 45.5204C27.2458 47.6312 32.4058 54.0527 35.4454 55.5838C35.5344 55.6433 35.5788 55.7176 35.5788 55.777C35.5937 55.8959 35.5047 55.9851 35.3861 56L35.2378 55.9851Z" fill="#04151F"/>
<path d="M48.1526 54.5433L48.0933 54.0974C47.7967 49.5488 52.497 34.3421 52.3487 32.1273L52.3043 31.9786C52.2598 31.8597 52.1412 31.8151 51.9929 31.8151C50.525 31.9192 44.6088 35.6948 44.846 39.3367C44.8905 40.0799 45.1722 40.7637 45.8098 41.3732C45.8691 41.4326 45.8988 41.4921 45.9136 41.5515C45.9284 41.7002 45.7802 41.834 45.6615 41.834C45.5726 41.834 45.5133 41.8191 45.454 41.7596C44.7274 41.061 44.4012 40.2583 44.3567 39.3961C44.1047 35.561 49.8132 31.5178 51.9929 31.3692C52.3784 31.3394 52.6453 31.4732 52.7936 31.7854L52.838 32.0232C53.016 34.6543 48.3008 49.6231 48.5826 54.0231L48.6419 54.4393C48.716 54.7663 48.8791 54.9595 49.1757 54.9447L49.3536 54.9001C50.1098 54.7366 52.2449 51.5852 55.077 47.3636C59.1397 41.3434 63.2469 34.907 68.57 30.0759C68.6293 30.0165 68.6886 30.0165 68.7479 30.0016C68.8666 29.9868 68.9852 30.0759 69 30.1949C69 30.2543 68.9852 30.3138 68.8962 30.3732C63.6176 35.1746 59.5549 41.6407 55.507 47.6758C52.6008 52.0014 50.436 55.2271 49.4722 55.4352L49.2053 55.4798C48.627 55.5244 48.286 55.1825 48.1526 54.5433Z" fill="#04151F"/>
</svg>
