<svg width="223" height="63" viewBox="0 0 223 63" fill="none" xmlns="http://www.w3.org/2000/svg">
<path d="M8.05798 6.76415H6.70009V6.6031C8.07584 6.15574 9.04066 4.9747 9.04066 3.54314C9.04066 1.57475 7.7185 3.16198e-05 4.7526 3.16198e-05H0V12.5262H1.64376V7.64098H7.48624C7.5041 7.64098 7.52197 7.65888 7.52197 7.67677V12.5262H9.16572V7.89151C9.16572 7.15783 8.77265 6.76415 8.05798 6.76415ZM1.64376 6.26311V1.3958H4.5918C6.82516 1.3958 7.4505 2.48737 7.4505 3.82945C7.4505 5.18944 6.50355 6.26311 4.53819 6.26311H1.64376Z" fill="white"/>
<path d="M114.545 11.0946H111.722V1.43156H114.545V0H107.291V1.43156H110.114V11.0946H107.291V12.5261H114.545V11.0946Z" fill="white"/>
<path d="M43.0776 11.0946H40.2546V1.43156H43.0776V0H35.8236V1.43156H38.6466V11.0946H35.8236V12.5261H43.0776V11.0946Z" fill="white"/>
<path d="M76.6309 12.5261L80.6331 0H78.9357L75.3445 11.4704H75.0586L71.4495 0H69.7521L73.7364 12.5261H76.6309Z" fill="white"/>
<path d="M183.779 6.76412H182.421V6.60307C183.797 6.15571 184.762 4.97467 184.762 3.54311C184.762 1.57472 183.44 0 180.474 0H175.721V12.5261H177.365V7.64095H183.207C183.225 7.64095 183.243 7.65885 183.243 7.67674V12.5261H184.887V7.89147C184.887 7.1578 184.494 6.76412 183.779 6.76412ZM177.365 6.26307V1.39577H180.313C182.546 1.39577 183.172 2.48734 183.172 3.82942C183.172 5.1894 182.225 6.26307 180.259 6.26307H177.365Z" fill="white"/>
<path d="M214.617 8.15989H219.566L220.977 12.5261H222.71L218.565 0H215.689L211.544 12.5261H213.187L214.617 8.15989ZM216.921 1.05578H217.243L219.119 6.8178H215.045L216.921 1.05578Z" fill="white"/>
<path d="M141.221 12.5261H149.064V11.0946H142.864V6.97885H148.207V5.54729H142.864V1.41367H149.064V0H141.221V12.5261Z" fill="white"/>
<path d="M39.3607 49.8541C37.6991 49.8541 36.1804 50.6414 35.4121 52.2877H35.2156V50.1225H33.7684V55.9024C33.7684 56.5108 34.2686 57.0119 34.8761 57.0119H39.3607V55.6519H35.3942V55.1866C35.4478 52.8782 36.9665 51.2856 39.2714 51.2856C41.8442 51.2856 43.4522 53.3256 43.4522 56.3856C43.4522 59.4455 41.737 61.4855 39.182 61.4855C37.6812 61.4855 36.3591 60.6266 35.6444 59.1771L34.215 59.9287C35.1262 61.7897 36.9665 62.917 39.182 62.917C42.7018 62.917 45.1496 60.2508 45.1496 56.3856C45.1496 52.5203 42.8626 49.8541 39.3607 49.8541Z" fill="white"/>
<path d="M0.66044 51.5539H6.86026V55.6697H1.51805V57.1012H6.86026V61.2348H0.66044V62.6485H8.50401V50.1224H0.66044V51.5539Z" fill="white"/>
<path d="M176.685 51.5539H179.508V61.2169H176.685V62.6485H183.939V61.2169H181.116V51.5539H183.939V50.1224H176.685V51.5539Z" fill="white"/>
<path d="M77.7021 54.4886H72.753L71.3415 50.1224H69.6084L73.7535 62.6485H76.6301L80.7752 50.1224H79.1315L77.7021 54.4886ZM75.3973 61.5927H75.0757L73.1997 55.8307H77.2733L75.3973 61.5927Z" fill="white"/>
<path d="M215.689 50.1224L211.687 62.6485H213.384L216.975 51.1781H217.261L220.87 62.6485H222.568L218.583 50.1224H215.689Z" fill="white"/>
<path d="M113.705 50.1224H107.005V51.5539H113.169C113.205 51.5539 113.223 51.5718 113.223 51.6076V62.6485H114.831V51.2497C114.831 50.6413 114.33 50.1224 113.705 50.1224Z" fill="white"/>
<path d="M147.919 50.1224H141.219V51.5539H147.383C147.419 51.5539 147.437 51.5718 147.437 51.6076V62.6485H149.045V51.2497C149.045 50.6413 148.544 50.1224 147.919 50.1224Z" fill="white"/>
</svg>
