<svg width="16" height="19" viewBox="0 0 16 19" fill="none" xmlns="http://www.w3.org/2000/svg">
<path fill-rule="evenodd" clip-rule="evenodd" d="M8.45912 6.55157C8.7652 6.26059 9.26145 6.26059 9.56754 6.55157L16 12.6667L9.56754 18.7818C9.26145 19.0727 8.7652 19.0727 8.45912 18.7818C8.15304 18.4908 8.15304 18.019 8.45912 17.728L13.7832 12.6667L8.45912 7.60529C8.15304 7.31432 8.15304 6.84255 8.45912 6.55157Z" fill="white"/>
<path fill-rule="evenodd" clip-rule="evenodd" d="M0 9.68627L0 0L1.56754 0L1.56754 9.68627C1.56754 10.0995 1.67008 10.7133 1.94367 11.195C2.19892 11.6444 2.55693 11.9216 3.13507 11.9216L14.4997 11.9216V13.4118L3.13507 13.4118C1.83217 13.4118 1.01453 12.6955 0.564387 11.9031C0.132584 11.1429 0 10.2666 0 9.68627Z" fill="white"/>
</svg>
