<svg width="102" height="30" viewBox="0 0 102 30" fill="none" xmlns="http://www.w3.org/2000/svg">
<g clip-path="url(#clip0)">
<path d="M3.69049 3.96779H3.06859V3.89403C3.69868 3.68914 4.14055 3.14824 4.14055 2.49259C4.14055 1.59108 3.53502 0.869873 2.17665 0.869873H0V6.60676H0.752828V4.36937H3.42864C3.43682 4.36937 3.44501 4.37757 3.44501 4.38576V6.60676H4.19783V4.48411C4.19783 4.14809 4.01781 3.96779 3.69049 3.96779ZM0.752828 3.73831V1.50913H2.10301C3.12587 1.50913 3.41227 2.00905 3.41227 2.62372C3.41227 3.24658 2.97858 3.73831 2.07846 3.73831H0.752828Z" fill="black"/>
<path d="M52.4609 5.95111H51.168V1.52552H52.4609V0.869873H49.1387V1.52552H50.4316V5.95111H49.1387V6.60676H52.4609V5.95111Z" fill="black"/>
<path d="M19.7285 5.95111H18.4356V1.52552H19.7285V0.869873H16.4062V1.52552H17.6992V5.95111H16.4062V6.60676H19.7285V5.95111Z" fill="black"/>
<path d="M35.0967 6.60676L36.9297 0.869873H36.1523L34.5075 6.12322H34.3766L32.7237 0.869873H31.9463L33.7711 6.60676H35.0967Z" fill="black"/>
<path d="M84.17 3.96779H83.5481V3.89403C84.1782 3.68914 84.62 3.14824 84.62 2.49259C84.62 1.59108 84.0145 0.869873 82.6561 0.869873H80.4795V6.60676H81.2323V4.36937H83.9081C83.9163 4.36937 83.9245 4.37757 83.9245 4.38576V6.60676H84.6773V4.48411C84.6773 4.14809 84.4973 3.96779 84.17 3.96779ZM81.2323 3.73831V1.50913H82.5825C83.6054 1.50913 83.8918 2.00905 83.8918 2.62372C83.8918 3.24658 83.4581 3.73831 82.558 3.73831H81.2323Z" fill="black"/>
<path d="M98.2932 4.60704H100.56L101.206 6.60676H102L100.102 0.869873H98.7842L96.8857 6.60676H97.6386L98.2932 4.60704ZM99.3488 1.35341H99.4961L100.355 3.99238H98.4896L99.3488 1.35341Z" fill="black"/>
<path d="M64.6777 6.60676H68.27V5.95111H65.4306V4.06614H67.8772V3.41049H65.4306V1.51732H68.27V0.869873H64.6777V6.60676Z" fill="black"/>
<path d="M18.0271 23.7026C17.2661 23.7026 16.5705 24.0632 16.2186 24.8172H16.1286V23.8256H15.4658V26.4727C15.4658 26.7514 15.6949 26.9809 15.9732 26.9809H18.0271V26.358H16.2105V26.1449C16.235 25.0877 16.9306 24.3583 17.9862 24.3583C19.1645 24.3583 19.901 25.2926 19.901 26.694C19.901 28.0954 19.1154 29.0297 17.9452 29.0297C17.2579 29.0297 16.6523 28.6364 16.325 27.9725L15.6704 28.3167C16.0877 29.1691 16.9306 29.6854 17.9452 29.6854C19.5573 29.6854 20.6783 28.4642 20.6783 26.694C20.6783 24.9238 19.6309 23.7026 18.0271 23.7026Z" fill="black"/>
<path d="M0.302734 24.4813H3.1422V26.3663H0.695514V27.0219H3.1422V28.9151H0.302734V29.5626H3.89503V23.8257H0.302734V24.4813Z" fill="black"/>
<path d="M80.9209 24.4813H82.2138V28.9069H80.9209V29.5626H84.2431V28.9069H82.9502V24.4813H84.2431V23.8257H80.9209V24.4813Z" fill="black"/>
<path d="M35.5877 25.8254H33.3211L32.6746 23.8257H31.8809L33.7793 29.5626H35.0967L36.9952 23.8257H36.2424L35.5877 25.8254ZM34.5321 29.079H34.3848L33.5256 26.4401H35.3913L34.5321 29.079Z" fill="black"/>
<path d="M98.7841 23.8257L96.9512 29.5626H97.7286L99.3733 24.3092H99.5042L101.157 29.5626H101.935L100.11 23.8257H98.7841Z" fill="black"/>
<path d="M52.0754 23.8257H49.0068V24.4813H51.83C51.8463 24.4813 51.8545 24.4895 51.8545 24.5059V29.5626H52.591V24.342C52.591 24.0634 52.3618 23.8257 52.0754 23.8257Z" fill="black"/>
<path d="M67.7463 23.8257H64.6777V24.4813H67.5008C67.5172 24.4813 67.5254 24.4895 67.5254 24.5059V29.5626H68.2618V24.342C68.2618 24.0634 68.0327 23.8257 67.7463 23.8257Z" fill="black"/>
</g>
<defs>
<clipPath id="clip0">
<rect width="102" height="28.8155" fill="white" transform="translate(0 0.869873)"/>
</clipPath>
</defs>
</svg>
