<svg width="21" height="8" viewBox="0 0 21 8" fill="none" xmlns="http://www.w3.org/2000/svg">
<path d="M11.9716 6.43282C11.9716 7.2983 11.3018 7.99992 10.4756 7.99992C9.64931 7.99992 8.97949 7.2983 8.97949 6.43282C8.97949 5.56734 9.64931 4.86572 10.4756 4.86572C11.3018 4.86572 11.9716 5.56734 11.9716 6.43282Z" fill="#04151F"/>
<path d="M10.4292 0.69458C7.7627 0.69458 5.41 2.09924 3.7231 3.49894C2.03084 4.90308 0.968287 6.33583 0.876876 6.46089C0.760127 6.62087 0.700984 6.80924 0.699556 6.99768L0.697266 7.29995H2.5585L2.6485 7.19063C3.12612 6.61052 4.1665 5.44039 5.54836 4.41762C6.9342 3.39189 8.63153 2.53806 10.4292 2.53806C12.2223 2.53806 13.9188 3.39169 15.3055 4.41749C16.688 5.44027 17.7306 6.61049 18.2095 7.19088L18.2995 7.29995H20.1615L20.1591 6.99761C20.1576 6.80919 20.0984 6.6208 19.9815 6.46092C19.89 6.33577 18.8276 4.90314 17.1353 3.49897C15.4485 2.09924 13.0958 0.69458 10.4292 0.69458Z" fill="#04151F"/>
</svg>
