<svg width="13" height="13" viewBox="0 0 13 13" fill="none" xmlns="http://www.w3.org/2000/svg">
<path d="M6.52275 13C2.29071 13 0 10.279 0 6.76618C0 3.01228 2.57942 0 7.19117 0C10.5571 0 13 2.25335 13 5.3577C13 10.2193 7.40458 11.5028 7.68517 8.72935C7.30058 9.34766 6.68092 10.043 5.48979 10.043C4.12696 10.043 3.27979 9.01507 3.27979 7.36049C3.27979 4.88058 4.862 2.78516 6.73508 2.78516C7.63371 2.78516 8.25175 3.274 8.51013 4.02455L8.76146 3.11384H10.0279C9.89571 3.57812 8.77067 7.87221 8.77067 7.87221C8.41967 9.35993 9.50192 9.38616 10.4618 8.59598C12.265 7.15625 12.3581 3.39118 9.92117 1.82087C7.30979 0.207589 1.36554 1.20591 1.36554 6.67187C1.36554 9.80301 3.50513 11.9068 6.68958 11.9068C8.55075 11.9068 9.6915 11.3878 10.641 10.8198L11.2786 11.7673C10.3518 12.3064 8.86221 13 6.52275 13ZM5.25308 5.0173C4.86579 5.76507 4.61554 6.73382 4.61554 7.48605C4.61554 9.50056 6.52329 9.51339 7.46038 7.61942C7.84604 6.84152 8.09467 5.84989 8.09467 5.09208C8.09467 3.46429 6.20154 3.17578 5.25308 5.0173Z" fill="black"/>
</svg>
