<svg width="13" height="13" viewBox="0 0 13 13" fill="none" xmlns="http://www.w3.org/2000/svg">
<path d="M3.35165 4.72237C3.58946 4.48459 3.85327 4.28851 4.13387 4.1336C5.69777 3.27184 7.70316 3.73007 8.70856 5.25427L7.49189 6.47028C7.14304 5.67459 6.27685 5.22177 5.415 5.4146C5.09052 5.48718 4.78229 5.64914 4.5304 5.901L2.19891 8.23335C1.4909 8.94128 1.4909 10.0928 2.19891 10.8008C2.90692 11.5087 4.05858 11.5087 4.76658 10.8008L5.48542 10.082C6.13926 10.3414 6.84022 10.4449 7.53252 10.3934L5.94587 11.9799C4.58565 13.34 2.38038 13.34 1.02016 11.9799C-0.340054 10.6199 -0.340054 8.4148 1.02016 7.05472L3.35165 4.72237ZM7.05474 1.01966L5.46809 2.60615C6.15984 2.55415 6.86135 2.65815 7.51519 2.91705L8.23348 2.19883C8.94149 1.49089 10.0932 1.49089 10.8012 2.19883C11.5092 2.90676 11.5092 4.05831 10.8012 4.76625L8.46913 7.09805C7.75895 7.80815 6.60567 7.80219 5.90145 7.09805C5.73732 6.93393 5.59593 6.72973 5.50763 6.52878L4.29097 7.74478C4.41881 7.93869 4.55153 8.10606 4.72216 8.27668C5.16203 8.7165 5.72215 9.0442 6.36678 9.19965C7.20208 9.4006 8.09698 9.28956 8.86565 8.86545C9.14626 8.71054 9.41006 8.51446 9.64787 8.27668L11.9794 5.94488C13.3401 4.58479 13.3401 2.37974 11.9799 1.01966C10.6197 -0.339885 8.41496 -0.339885 7.05474 1.01966Z" fill="black"/>
</svg>
