<svg width="235" height="116" viewBox="0 0 235 116" fill="none" xmlns="http://www.w3.org/2000/svg">
<path d="M3.10328 107H5.74328V95.2L19.1833 94.4V92.12L5.74328 92.92V81.04H21.2233V78.8H3.10328V107ZM49.1017 81.04V78.8H33.9017V81.04H40.1817V104.76H33.9017V107H49.1017V104.76H42.8217V81.04H49.1017ZM62.1798 107H64.8198V81.6L64.4198 79.6H65.2198L80.3798 107H85.7798V78.8H83.1398V104.2L83.5398 106.2H82.7398L67.5798 78.8H62.1798V107ZM119.077 107H121.677L112.397 78.8H106.957L97.6767 107H100.277L104.037 95.56H115.317L119.077 107ZM104.757 93.32L109.277 79.6H110.077L114.597 93.32H104.757ZM133.561 107H136.201V81.6L135.801 79.6H136.601L151.761 107H157.161V78.8H154.521V104.2L154.921 106.2H154.121L138.961 78.8H133.561V107ZM169.867 92.88C169.867 101.12 174.627 107.4 182.787 107.4C189.867 107.4 194.467 103.08 195.307 96.08H192.667C192.027 101.8 188.627 105.16 182.787 105.16C175.867 105.16 172.507 99.92 172.507 92.88C172.507 85.88 175.867 80.64 182.787 80.64C188.627 80.64 192.027 83.96 192.667 89.68H195.307C194.467 82.72 189.867 78.4 182.787 78.4C174.627 78.4 169.867 84.68 169.867 92.88ZM207.989 107H224.909V104.76H210.629V94H222.909V91.76H210.629V81.04H224.909V78.8H207.989V107Z" fill="white"/>
<path d="M98.2292 53.9691C91.2361 50.4805 79.0525 35.5072 76.193 31.6789L76.0376 31.4319C76.0066 31.1232 76.3174 30.8454 76.6282 30.8454H76.8147C78.8349 31.4011 81.0105 31.5554 83.2484 31.4011C92.8834 30.7527 103.42 24.2694 106.186 16.3351C106.683 14.6989 106.901 13.2787 106.839 12.0438C106.435 5.90008 98.9441 4.1712 90.6456 4.72691C80.0781 5.43699 68.3296 9.88268 68.6094 13.8962C68.6404 14.2049 68.7026 14.5754 68.9202 14.8532C70.4742 17.6009 75.1052 18.0949 75.416 23.0036C75.5403 24.3312 75.3228 25.9366 74.6701 28.0977L84.9889 11.5189C85.051 11.3337 85.2064 11.272 85.3308 11.2411C85.6416 11.2102 85.8902 11.4572 85.9213 11.7659L85.8902 12.0747L69.0134 39.3663C65.5324 45.016 62.5175 49.9557 60.9324 52.9503C60.8392 53.1973 60.6527 53.2899 60.4662 53.2899C60.2797 53.2899 60.0311 53.1356 60 52.8268L60.0932 52.5181C61.8027 49.2765 65.0351 43.7502 68.7648 37.5756C73.1782 30.2279 74.5147 25.9366 74.3282 23.1889C74.0174 18.7123 69.7283 18.311 68.0499 15.4089C67.7702 14.9458 67.6148 14.4519 67.5837 14.0196C67.2729 9.17261 79.3322 4.35644 90.3969 3.64636C99.286 3.05978 107.491 5.09739 107.958 11.9203C108.051 13.2787 107.833 14.8841 107.212 16.7056C104.29 25.103 93.3185 31.8642 83.3105 32.5125C81.5078 32.636 79.7052 32.5742 78.0268 32.2346C81.4768 36.6186 92.2928 49.9557 98.6644 53.1356C98.8509 53.2591 98.9441 53.4134 98.9441 53.5369C98.9752 53.7839 98.7887 53.9691 98.5401 54L98.2292 53.9691Z" fill="white"/>
<path d="M125.301 50.9745L125.176 50.0483C124.555 40.6012 134.407 9.01824 134.096 4.41819L134.003 4.10946C133.91 3.86247 133.661 3.76986 133.35 3.76986C130.273 3.98597 117.872 11.8277 118.37 19.3915C118.463 20.9352 119.053 22.3553 120.39 23.6211C120.514 23.7446 120.576 23.8681 120.607 23.9916C120.638 24.3003 120.328 24.5782 120.079 24.5782C119.892 24.5782 119.768 24.5473 119.644 24.4238C118.121 22.9728 117.437 21.3056 117.344 19.515C116.816 11.5498 128.782 3.1524 133.35 2.84367C134.159 2.78192 134.718 3.05978 135.029 3.70811L135.122 4.20208C135.495 9.66657 125.611 40.7555 126.202 49.8939L126.326 50.7584C126.482 51.4376 126.823 51.8389 127.445 51.808L127.818 51.7154C129.403 51.3758 133.879 44.8308 139.815 36.0629C148.331 23.5594 156.941 10.1914 168.099 0.157731C168.223 0.0342392 168.347 0.0342392 168.472 0.00336633C168.72 -0.0275065 168.969 0.157731 169 0.404714C169 0.528205 168.969 0.651696 168.782 0.775188C157.718 10.7471 149.202 24.1768 140.717 36.7112C134.625 45.6952 130.087 52.3946 128.067 52.8268L127.507 52.9195C126.295 53.0121 125.58 52.302 125.301 50.9745Z" fill="white"/>
</svg>
