<svg width="163" height="38" viewBox="0 0 163 38" fill="none" xmlns="http://www.w3.org/2000/svg">
<path d="M26.8717 37.9783C21.9562 35.5233 13.3922 24.9865 11.3823 22.2926L11.273 22.1188C11.2512 21.9015 11.4696 21.706 11.6881 21.706H11.8192C13.2392 22.097 14.7685 22.2057 16.3415 22.097C23.1141 21.6408 30.5202 17.0785 32.4646 11.4951C32.8141 10.3436 32.967 9.34427 32.9233 8.47526C32.6393 4.15191 27.3742 2.93529 21.5411 3.32635C14.1131 3.82603 5.85498 6.95448 6.0516 9.77878C6.07345 9.99603 6.11714 10.2567 6.27007 10.4523C7.36242 12.3858 10.6176 12.7334 10.8361 16.1878C10.9235 17.1219 10.7705 18.2517 10.3118 19.7724L17.5649 8.10592C17.6086 7.97557 17.7179 7.93212 17.8053 7.9104C18.0237 7.88867 18.1985 8.06247 18.2203 8.27973L18.1985 8.49698L6.33561 27.7022C3.88876 31.6779 1.7696 35.154 0.655408 37.2613C0.589867 37.4351 0.458786 37.5003 0.327704 37.5003C0.196622 37.5003 0.0218469 37.3917 0 37.1744L0.0655408 36.9572C1.26712 34.676 3.5392 30.7872 6.16084 26.4421C9.2631 21.2715 10.2025 18.2517 10.0714 16.3181C9.85297 13.1679 6.83809 12.8855 5.65836 10.8433C5.46173 10.5174 5.3525 10.1698 5.33065 9.86568C5.11218 6.4548 13.5888 3.06564 21.3663 2.56596C27.6145 2.15318 33.3821 3.58705 33.7098 8.38835C33.7754 9.34427 33.6224 10.474 33.1855 11.7558C31.1319 17.6651 23.4199 22.4229 16.4071 22.8792C15.1399 22.9661 13.8728 22.9226 12.6931 22.6836C15.1181 25.7686 22.7208 35.154 27.1994 37.3917C27.3305 37.4786 27.3961 37.5872 27.3961 37.6741C27.4179 37.8479 27.2868 37.9783 27.112 38L26.8717 37.9783Z" fill="black"/>
<path d="M45.9004 35.8709L45.813 35.2192C45.3761 28.5712 52.3016 6.34617 52.0831 3.10909L52.0176 2.89184C51.952 2.71804 51.7772 2.65286 51.5588 2.65286C49.3959 2.80494 40.679 8.32318 41.0285 13.6459C41.0941 14.7322 41.5092 15.7315 42.4486 16.6223C42.536 16.7092 42.5797 16.7961 42.6015 16.883C42.6234 17.1002 42.4049 17.2957 42.2301 17.2957C42.099 17.2957 42.0117 17.274 41.9243 17.1871C40.8538 16.166 40.3731 14.9929 40.3076 13.7328C39.9362 8.12765 48.3473 2.21835 51.5588 2.0011C52.1268 1.95765 52.52 2.15318 52.7385 2.60941L52.8041 2.95702C53.0662 6.8024 46.1189 28.6798 46.534 35.1105L46.6214 35.7188C46.7306 36.1968 46.9709 36.4792 47.4079 36.4575L47.67 36.3923C48.7842 36.1534 51.9302 31.5476 56.1029 25.3776C62.089 16.5788 68.1406 7.17173 75.9837 0.110996C76.071 0.0240942 76.1584 0.0240943 76.2458 0.0023689C76.4206 -0.0193564 76.5954 0.110996 76.6172 0.284798C76.6172 0.3717 76.5954 0.458601 76.4643 0.545503C68.6868 7.56279 62.7007 17.0133 56.7365 25.8338C52.4545 32.1559 49.2648 36.8703 47.8448 37.1744L47.4515 37.2396C46.5995 37.3048 46.097 36.8051 45.9004 35.8709Z" fill="black"/>
<path d="M95.1216 10.5609C99.8842 10.5609 102.986 13.4504 103.554 18.1213H101.785C101.348 14.2976 99.054 12.0599 95.1216 12.0599C90.4682 12.0599 88.1961 15.5794 88.1961 20.2721C88.1961 24.9865 90.4682 28.506 95.1216 28.506C99.054 28.506 101.348 26.2466 101.785 22.4229H103.554C102.986 27.1156 99.8842 30.0051 95.1216 30.0051C89.6161 30.0051 86.4046 25.7904 86.4046 20.2721C86.4046 14.7756 89.6161 10.5609 95.1216 10.5609Z" fill="black"/>
<path d="M110.633 28.5278V10.8433H112.402V28.506L122.037 28.2453V29.7444L112.118 30.0051C111.157 30.0268 110.633 29.4619 110.633 28.5278Z" fill="black"/>
<path d="M129.509 10.8433V22.6836C129.509 26.5942 131.082 28.506 135.036 28.506C138.99 28.506 140.585 26.5942 140.585 22.6836V10.8433H142.355V22.7271C142.355 27.4415 140.126 30.0268 135.014 30.0268C129.902 30.0268 127.717 27.4632 127.717 22.7271V10.8433H129.509Z" fill="black"/>
<path d="M149.717 10.8433H154.414C158.936 10.8433 161.602 11.7558 161.602 15.4708C161.602 18.0344 159.898 19.3814 157.953 19.5117V20.0549C160.859 20.0983 163 21.467 163 24.7258C163 28.4191 160.335 29.7444 155.812 29.7444H149.717V10.8433ZM154.414 19.1424C157.779 19.1424 159.832 18.5993 159.832 15.7315C159.832 12.5596 157.779 12.3206 154.414 12.3206H151.509V19.1207H154.414V19.1424ZM155.812 28.2236C159.177 28.2236 161.23 27.5718 161.23 24.4434C161.23 21.5539 159.177 20.6415 155.812 20.6415H151.509V28.2236H155.812Z" fill="black"/>
</svg>
