<svg width="163" height="39" viewBox="0 0 163 39" fill="none" xmlns="http://www.w3.org/2000/svg">
<path d="M26.944 38.9777C22.0152 36.4581 13.4282 25.6441 11.4128 22.8792L11.3033 22.7008C11.2814 22.4779 11.5005 22.2772 11.7195 22.2772H11.851C13.2748 22.6785 14.8082 22.79 16.3854 22.6785C23.1762 22.2103 30.6022 17.5279 32.5518 11.7976C32.9023 10.6158 33.0556 9.59017 33.0118 8.69829C32.7271 4.26117 27.4478 3.01254 21.599 3.41388C14.1511 3.92672 5.87072 7.13749 6.06787 10.0361C6.08977 10.2591 6.13358 10.5266 6.28692 10.7273C7.38221 12.7118 10.6461 13.0685 10.8652 16.6137C10.9528 17.5725 10.7995 18.732 10.3395 20.2928L17.6122 8.31924C17.656 8.18545 17.7655 8.14086 17.8531 8.11856C18.0722 8.09627 18.2474 8.27464 18.2693 8.49761L18.2474 8.72058L6.35264 28.4312C3.89921 32.5116 1.77436 36.0791 0.65717 38.2419C0.591453 38.4203 0.460019 38.4872 0.328585 38.4872C0.197151 38.4872 0.0219057 38.3757 0 38.1527L0.065717 37.9297C1.27053 35.5886 3.54872 31.5974 6.1774 27.138C9.288 21.8313 10.2299 18.732 10.0985 16.7475C9.87945 13.5145 6.85647 13.2246 5.67357 11.1287C5.47641 10.7942 5.36689 10.4375 5.34498 10.1253C5.12592 6.62466 13.6253 3.14632 21.4237 2.63349C27.6888 2.20984 33.4718 3.68145 33.8004 8.6091C33.8661 9.59017 33.7128 10.7496 33.2747 12.0651C31.2156 18.1299 23.4829 23.013 16.4511 23.4812C15.1806 23.5704 13.9101 23.5258 12.7272 23.2806C15.1587 26.4468 22.7819 36.0791 27.2725 38.3757C27.404 38.4649 27.4697 38.5764 27.4697 38.6655C27.4916 38.8439 27.3602 38.9777 27.1849 39L26.944 38.9777Z" fill="black"/>
<path d="M46.0238 36.8149L45.9362 36.146C45.4981 29.3231 52.4421 6.51318 52.2231 3.19091L52.1574 2.96794C52.0917 2.78956 51.9164 2.72267 51.6974 2.72267C49.5287 2.87875 40.7883 8.54221 41.1388 14.005C41.2045 15.1198 41.6208 16.1455 42.5627 17.0597C42.6503 17.1489 42.6941 17.2381 42.716 17.3273C42.7379 17.5502 42.5189 17.7509 42.3436 17.7509C42.2122 17.7509 42.1246 17.7286 42.037 17.6394C40.9636 16.5914 40.4817 15.3874 40.4159 14.0942C40.0435 8.34153 48.4772 2.27673 51.6974 2.05376C52.2669 2.00917 52.6612 2.20984 52.8803 2.67808L52.946 3.03483C53.2088 6.98141 46.2428 29.4346 46.6591 36.0345L46.7467 36.6588C46.8562 37.1493 47.0972 37.4392 47.5353 37.4169L47.7981 37.35C48.9153 37.1048 52.0697 32.3778 56.2537 26.0454C62.2559 17.0151 68.3237 7.36046 76.1879 0.113917C76.2755 0.0247283 76.3631 0.0247283 76.4508 0.00243124C76.626 -0.0198658 76.8012 0.113917 76.8232 0.292293C76.8232 0.381481 76.8012 0.47067 76.6698 0.559858C68.8714 7.76181 62.8692 17.461 56.889 26.5136C52.5955 33.0021 49.3973 37.8406 47.9734 38.1527L47.5791 38.2196C46.7248 38.2865 46.2209 37.7737 46.0238 36.8149Z" fill="black"/>
<path d="M89.8351 20.8056L101.489 30.5048H98.926L88.696 21.9873V30.5048H86.9217V11.1287H88.696V19.6461L98.926 11.1287H101.489L89.8351 20.8056Z" fill="black"/>
<path d="M114.063 12.6672V28.9663H118.291V30.5048H108.017V28.9663H112.267V12.6672H108.017V11.1287H118.291V12.6672H114.063Z" fill="black"/>
<path d="M140.875 20.8056C140.875 29.167 136.034 30.5271 131.5 30.5271H125.651V11.1287H131.5C136.034 11.1287 140.875 12.4665 140.875 20.8056ZM139.079 20.8056C139.079 13.3138 134.873 12.6672 131.478 12.6672H127.425V28.9886H131.478C134.873 28.9663 139.079 28.3197 139.079 20.8056Z" fill="black"/>
<path d="M155.837 30.7947C149.243 30.7947 147.403 27.7623 147.403 23.3029H149.178C149.178 28.2082 151.762 29.2562 155.837 29.2562C159.167 29.2562 161.226 28.4312 161.226 25.8447C161.226 22.5894 157.655 21.9873 154.566 21.0955C150.864 20.0029 148.257 18.9549 148.257 15.5881C148.257 12.6672 150.207 10.8611 154.851 10.8611C160.415 10.8611 162.211 14.4286 162.211 17.461H160.437C160.437 14.005 157.896 12.3996 154.873 12.3996C152.113 12.3996 150.054 13.1131 150.054 15.4766C150.054 17.7509 151.981 18.5536 155.114 19.557C158.904 20.7387 163 21.6752 163 25.711C163 28.4981 161.445 30.7947 155.837 30.7947Z" fill="black"/>
</svg>
