<svg width="186" height="38" viewBox="0 0 186 38" fill="none" xmlns="http://www.w3.org/2000/svg">
<path d="M26.8647 37.9783C21.9504 35.5233 13.3887 24.9865 11.3793 22.2926L11.2701 22.1188C11.2482 21.9015 11.4667 21.706 11.6851 21.706H11.8161C13.2358 22.097 14.7647 22.2057 16.3372 22.097C23.108 21.6408 30.5122 17.0785 32.4561 11.4951C32.8055 10.3436 32.9584 9.34427 32.9147 8.47526C32.6308 4.15191 27.3671 2.93529 21.5355 3.32635C14.1094 3.82603 5.85345 6.95448 6.05002 9.77878C6.07187 9.99603 6.11555 10.2567 6.26844 10.4523C7.3605 12.3858 10.6148 12.7334 10.8333 16.1878C10.9206 17.1219 10.7677 18.2517 10.3091 19.7724L17.5604 8.10592C17.604 7.97557 17.7132 7.93212 17.8006 7.9104C18.019 7.88867 18.1938 8.06247 18.2156 8.27973L18.1938 8.49698L6.33396 27.7022C3.88774 31.6779 1.76914 35.154 0.655237 37.2613C0.589713 37.4351 0.458666 37.5003 0.327619 37.5003C0.196571 37.5003 0.0218412 37.3917 0 37.1744L0.0655237 36.9572C1.26679 34.676 3.53828 30.7872 6.15923 26.4421C9.26069 21.2715 10.1999 18.2517 10.0688 16.3181C9.8504 13.1679 6.83631 12.8855 5.65688 10.8433C5.46031 10.5174 5.3511 10.1698 5.32926 9.86568C5.11085 6.4548 13.5853 3.06564 21.3607 2.56596C27.6073 2.15318 33.3734 3.58705 33.701 8.38835C33.7666 9.34427 33.6137 10.474 33.1768 11.7558C31.1238 17.6651 23.4138 22.4229 16.4028 22.8792C15.136 22.9661 13.8692 22.9226 12.6898 22.6836C15.1141 25.7686 22.7149 35.154 27.1923 37.3917C27.3234 37.4786 27.3889 37.5872 27.3889 37.6741C27.4108 37.8479 27.2797 37.9783 27.105 38L26.8647 37.9783Z" fill="black"/>
<path d="M45.8884 35.8709L45.8011 35.2192C45.3643 28.5712 52.2879 6.34617 52.0695 3.10909L52.004 2.89184C51.9385 2.71804 51.7637 2.65286 51.5453 2.65286C49.383 2.80494 40.6684 8.32318 41.0178 13.6459C41.0834 14.7322 41.4984 15.7315 42.4375 16.6223C42.5249 16.7092 42.5686 16.7961 42.5904 16.883C42.6123 17.1002 42.3938 17.2957 42.2191 17.2957C42.0881 17.2957 42.0007 17.274 41.9133 17.1871C40.8431 16.166 40.3626 14.9929 40.2971 13.7328C39.9258 8.12765 48.3347 2.21835 51.5453 2.0011C52.1132 1.95765 52.5063 2.15318 52.7248 2.60941L52.7903 2.95702C53.0524 6.8024 46.1069 28.6798 46.5218 35.1105L46.6092 35.7188C46.7184 36.1968 46.9587 36.4792 47.3955 36.4575L47.6576 36.3923C48.7715 36.1534 51.9166 31.5476 56.0883 25.3776C62.0728 16.5788 68.1228 7.17173 75.9638 0.110996C76.0512 0.0240942 76.1386 0.0240943 76.2259 0.0023689C76.4007 -0.0193564 76.5754 0.110996 76.5972 0.284798C76.5972 0.3717 76.5754 0.458601 76.4443 0.545503C68.6689 7.56279 62.6844 17.0133 56.7217 25.8338C52.4408 32.1559 49.252 36.8703 47.8323 37.1744L47.4392 37.2396C46.5874 37.3048 46.085 36.8051 45.8884 35.8709Z" fill="black"/>
<path d="M94.2668 30.0051C87.6926 30.0051 85.8579 27.0504 85.8579 22.7054H87.6271C87.6271 27.4849 90.2043 28.506 94.2668 28.506C97.5867 28.506 99.6397 27.7022 99.6397 25.182C99.6397 22.0101 96.0796 21.4236 93 20.5545C89.3088 19.49 86.7097 18.4689 86.7097 15.1884C86.7097 12.3424 88.6536 10.5826 93.2839 10.5826C98.8316 10.5826 100.623 14.0587 100.623 17.0133H98.8535C98.8535 13.6459 96.3199 12.0817 93.3058 12.0817C90.5538 12.0817 88.5007 12.7769 88.5007 15.0798C88.5007 17.2957 90.4227 18.0779 93.546 19.0555C97.3246 20.2069 101.409 21.1194 101.409 25.0517C101.409 27.7674 99.8363 30.0051 94.2668 30.0051Z" fill="black"/>
<path d="M121.219 16.9264C121.219 21.7277 118.27 23.0312 113.487 23.0312H110.255V29.7226H108.485V10.8216H113.509C118.27 10.8216 121.219 12.1468 121.219 16.9264ZM119.428 16.9264C119.428 12.9941 116.851 12.3424 113.465 12.3424H110.233V21.5322H113.465C116.851 21.5322 119.428 20.8804 119.428 16.9264Z" fill="black"/>
<path d="M136.18 10.5609C141.64 10.5609 144.851 14.7756 144.851 20.2721C144.851 25.7904 141.64 30.0051 136.18 30.0051C130.676 30.0051 127.465 25.7904 127.465 20.2721C127.465 14.7756 130.676 10.5609 136.18 10.5609ZM136.18 28.506C140.832 28.506 143.082 24.9865 143.082 20.2721C143.082 15.5794 140.854 12.0599 136.18 12.0599C131.528 12.0599 129.256 15.5794 129.256 20.2721C129.235 24.9865 131.506 28.506 136.18 28.506Z" fill="black"/>
<path d="M151.906 10.8216H158C162.521 10.8216 165.185 11.8644 165.185 16.1009C165.185 18.8817 163.919 20.2287 161.887 20.598V21.1411H164.071C165.076 21.1411 165.426 21.5105 165.426 22.4012V29.7226H163.656V21.945H153.675V29.7226H151.906V10.8216ZM158 20.4459C161.363 20.4459 163.416 20.0766 163.416 16.3616C163.416 12.6682 161.363 12.3206 158 12.3206H153.697V20.4459H158Z" fill="black"/>
<path d="M186 12.3424H179.338V29.7226H177.569V12.3424H170.886V10.8216H186V12.3424Z" fill="black"/>
</svg>
