<svg width="74" height="99" viewBox="0 0 74 99" fill="none" xmlns="http://www.w3.org/2000/svg">
<path d="M67.67 23.0075C67.2764 23.0232 66.8955 23.1526 66.5721 23.3803C66.2486 23.6081 65.9962 23.9248 65.8444 24.2931L46.8012 21.4898L38.195 3.82082C38.4826 3.62097 38.7155 3.35057 38.8721 3.03483C39.0287 2.7191 39.1037 2.36837 39.0903 2.01529C39.077 1.66263 38.9761 1.31901 38.7967 1.01646C38.6174 0.713919 38.3656 0.462275 38.0646 0.284686C37.7636 0.107097 37.4232 0.00933311 37.075 0.000637103C36.7268 -0.00805891 36.3821 0.0723837 36.0728 0.234732C35.7636 0.39708 35.4998 0.636083 35.306 0.92931C35.1122 1.22254 34.9946 1.56063 34.9642 1.91219C34.9338 2.26375 34.9915 2.61732 35.132 2.94024C35.2725 3.26316 35.4913 3.54479 35.7679 3.75917L27.1322 21.4898L8.19855 24.2766C8.00934 23.8258 7.67008 23.4566 7.23984 23.2331C6.80961 23.0097 6.31565 22.9465 5.844 23.054C5.37236 23.1616 4.95291 23.4333 4.65868 23.822C4.36446 24.2106 4.21411 24.6917 4.23381 25.1811C4.24766 25.5431 4.3539 25.8953 4.54218 26.2033C4.73046 26.5113 4.99436 26.7645 5.30807 26.9383C5.62179 27.1121 5.97461 27.2003 6.33211 27.1947C6.68961 27.1891 7.03955 27.0897 7.34779 26.9061L21.0541 40.4432L17.7816 59.7758H17.7564C17.3478 59.7917 16.9531 59.9301 16.6221 60.1733C16.2911 60.4166 16.0388 60.7538 15.8969 61.1424C15.7551 61.531 15.7302 61.9535 15.8254 62.3564C15.9206 62.7594 16.1315 63.1246 16.4316 63.406C16.7317 63.6874 17.1074 63.8724 17.5112 63.9374C17.915 64.0025 18.3288 63.9449 18.7002 63.7716C19.0716 63.5984 19.384 63.3175 19.5978 62.9644C19.8117 62.6113 19.9174 62.2018 19.9015 61.7878C19.8943 61.6195 19.8673 61.4527 19.8209 61.2909L36.9667 52.1572L54.1817 61.3279C54.1047 61.6192 54.0907 61.9241 54.1407 62.2215C54.1906 62.5188 54.3034 62.8017 54.4712 63.0508C54.639 63.2999 54.8579 63.5091 55.113 63.6646C55.368 63.82 55.6532 63.918 55.9491 63.9515C56.2449 63.985 56.5443 63.9534 56.827 63.8588C57.1096 63.7642 57.3688 63.6088 57.5867 63.4034C57.8046 63.1979 57.9762 62.9472 58.0897 62.6684C58.2031 62.3896 58.2559 62.0892 58.2442 61.7878C58.2232 61.2423 57.9927 60.7268 57.6018 60.3511C57.2108 59.9754 56.6905 59.7695 56.1517 59.7772L52.8793 40.4432L66.6318 26.8604C66.9766 27.0852 67.3891 27.2102 67.8295 27.1934C68.1021 27.1848 68.3705 27.1218 68.6189 27.0076C68.8674 26.8935 69.0912 26.7307 69.2772 26.5285C69.4633 26.3264 69.608 26.0888 69.7031 25.8297C69.7981 25.5706 69.8417 25.295 69.8311 25.0187C69.8205 24.7425 69.7561 24.4711 69.6416 24.2203C69.527 23.9694 69.3646 23.744 69.1636 23.557C68.9627 23.3701 68.7272 23.2254 68.4707 23.1311C68.2143 23.0368 67.9425 22.9947 67.67 23.0075Z" fill="#6A6A6A"/>
<path d="M17.1914 98.9097V94.4018H20.7694V95.4649H18.4116V96.1476H20.5471V97.1323H18.4116V97.8476H20.8017V98.9097H17.1914Z" fill="#6A6A6A"/>
<path d="M24.4495 98.987C23.6106 98.987 22.9161 98.7383 22.3645 98.2403L23.0515 97.4094C23.4962 97.7702 23.9769 97.9504 24.4941 97.9504C24.8324 97.9504 25.0022 97.8431 25.0022 97.6281C25.0022 97.534 24.9511 97.4552 24.8496 97.3943C24.7487 97.3312 24.5489 97.2657 24.2524 97.1966C24.0259 97.1453 23.8021 97.082 23.5821 97.0071C23.4017 96.9426 23.2288 96.8584 23.0665 96.7558C22.9078 96.6595 22.779 96.5201 22.6948 96.3532C22.6148 96.19 22.5745 95.995 22.5745 95.7676C22.5745 95.342 22.7303 94.9953 23.0418 94.727C23.3533 94.4588 23.7712 94.3245 24.297 94.3245C25.0258 94.3245 25.6354 94.5248 26.1273 94.9242L25.5107 95.8056C25.0951 95.5101 24.6799 95.3621 24.2648 95.3621C24.1214 95.3621 24.0107 95.39 23.935 95.445C23.8993 95.469 23.87 95.5017 23.85 95.5401C23.8301 95.5785 23.8199 95.6213 23.8206 95.6647C23.8206 95.7676 23.8721 95.8499 23.9758 95.9092C24.0794 95.9691 24.2846 96.0333 24.5892 96.1024C25.1488 96.227 25.5645 96.3935 25.8384 96.6019C26.1112 96.8098 26.2482 97.1157 26.2482 97.5194C26.2482 97.9744 26.0844 98.3328 25.7589 98.5935C25.4318 98.8563 24.9963 98.987 24.4495 98.987Z" fill="#6A6A6A"/>
<path d="M29.0759 98.9097V95.4971H27.7418V94.4018H31.6437V95.4971H30.309V98.9097H29.0759Z" fill="#6A6A6A"/>
<path d="M36.3018 98.9097V97.9698L37.9667 96.6824C38.1746 96.523 38.3212 96.3824 38.4087 96.2594C38.4957 96.1375 38.5393 96.0081 38.5393 95.8704C38.5393 95.7289 38.4936 95.6175 38.4028 95.5359C38.3115 95.4542 38.1923 95.4139 38.0441 95.4139C37.8956 95.415 37.7508 95.4605 37.6278 95.5449C37.4936 95.6336 37.3378 95.7823 37.16 95.9934L36.3276 95.2909C36.5816 94.9562 36.8448 94.7107 37.1155 94.5562C37.3862 94.4016 37.7277 94.325 38.1391 94.325C38.6257 94.325 39.0216 94.4587 39.3239 94.7276C39.6274 94.9959 39.7783 95.3443 39.7783 95.7737C39.7783 96.1127 39.6983 96.3955 39.5366 96.6208C39.3766 96.8455 39.1134 97.0895 38.7487 97.3512L37.9861 97.8928H39.8229V98.9097H36.3018Z" fill="#6A6A6A"/>
<path d="M45.1384 98.3208C44.7603 98.7741 44.2613 99 43.6426 99C43.0244 99 42.5271 98.7759 42.1522 98.3269C41.7773 97.8785 41.5899 97.3217 41.5899 96.6561C41.5899 95.9988 41.78 95.445 42.1619 94.9917C42.5432 94.5384 43.0411 94.312 43.6549 94.312C44.2742 94.312 44.7705 94.5377 45.1454 94.9882C45.5202 95.4388 45.7082 95.9949 45.7082 96.6561C45.7082 97.313 45.5181 97.8675 45.1389 98.3214L45.1384 98.3208ZM43.0577 97.5476C43.2102 97.7778 43.4095 97.8928 43.6555 97.8928C43.9004 97.8928 44.0986 97.7778 44.2463 97.5476C44.3945 97.318 44.4686 97.0207 44.4686 96.6561C44.4686 96.2953 44.3907 95.9989 44.2366 95.7676C44.0819 95.5358 43.8843 95.4192 43.6426 95.4192C43.3966 95.4192 43.2 95.5335 43.0518 95.7604C42.903 95.989 42.8289 96.2872 42.8289 96.6561C42.8289 97.0207 42.9052 97.318 43.0577 97.5476Z" fill="#6A6A6A"/>
<path d="M51.0495 98.3208C50.6703 98.7741 50.1713 99 49.5532 99C48.9344 99 48.4377 98.7759 48.0628 98.3269C47.6874 97.8785 47.5005 97.3217 47.5005 96.6561C47.5005 95.9988 47.6906 95.445 48.0724 94.9917C48.4538 94.5384 48.9516 94.312 49.566 94.312C50.1848 94.312 50.681 94.5377 51.0564 94.9882C51.4313 95.4388 51.6182 95.9949 51.6182 96.6561C51.6182 97.313 51.4286 97.867 51.0495 98.3208ZM48.9688 97.5476C49.1208 97.7778 49.3201 97.8928 49.566 97.8928C49.8109 97.8928 50.0091 97.7778 50.1568 97.5476C50.3051 97.318 50.3792 97.0207 50.3792 96.6561C50.3792 96.2953 50.3013 95.9989 50.1466 95.7676C49.993 95.5358 49.7943 95.4192 49.5532 95.4192C49.3066 95.4192 49.1101 95.5335 48.9624 95.7604C48.8141 95.989 48.7395 96.2872 48.7395 96.6561C48.7395 97.0207 48.8157 97.318 48.9688 97.5476Z" fill="#6A6A6A"/>
<path d="M55.0314 99C54.2435 99 53.6124 98.7335 53.1376 98.2013L53.9126 97.4158C54.2435 97.7592 54.5969 97.9308 54.9744 97.9308C55.1474 97.9308 55.2865 97.8894 55.3907 97.8056C55.4417 97.7647 55.4823 97.7122 55.5094 97.6523C55.5365 97.5924 55.5492 97.5268 55.5464 97.461C55.5479 97.392 55.531 97.3239 55.4975 97.2638C55.4639 97.2038 55.4149 97.154 55.3558 97.1198C55.2285 97.0382 55.0496 96.997 54.8214 96.997H54.3004L54.1232 96.3466L55.1458 95.4139H53.4427V94.4018H56.6582V95.2981L55.5969 96.2188C56.3639 96.3907 56.7479 96.8174 56.7479 97.4998C56.7479 97.9504 56.5868 98.3128 56.2677 98.5881C55.9476 98.8624 55.5352 99 55.0314 99Z" fill="#6A6A6A"/>
<path d="M0 87.7201V83.821H2.84114C2.84114 84.1514 2.91152 84.4149 3.05438 84.6102C3.19671 84.8072 3.36748 84.9584 3.56566 85.0667C3.76438 85.1756 3.97332 85.2502 4.19191 85.2915C4.38109 85.3286 4.57225 85.3544 4.76442 85.3688C4.89708 85.3688 5.03942 85.3579 5.19195 85.3372C5.33678 85.3192 5.47826 85.2801 5.61194 85.2208C5.73976 85.1653 5.84613 85.0879 5.9326 84.9894C6.01961 84.8914 6.06254 84.76 6.06254 84.5951C6.06254 84.3992 5.91753 84.237 5.62751 84.1075C5.27493 83.9564 4.91265 83.8295 4.54315 83.728C4.11027 83.6045 3.63978 83.4637 3.13063 83.3037C2.63312 83.1489 2.15812 82.9279 1.71811 82.6463C1.28918 82.3712 0.9202 82.0102 0.633751 81.5856C0.343727 81.1573 0.198717 80.6137 0.198717 79.953C0.198717 79.386 0.317932 78.8919 0.55747 78.4674C0.782395 78.0613 1.08975 77.7083 1.45924 77.4314C1.81531 77.1659 2.21242 76.9622 2.63436 76.8285C3.05651 76.6935 3.45609 76.6271 3.83312 76.6271C4.14839 76.6271 4.4642 76.6558 4.77947 76.7118C5.08907 76.7669 5.39143 76.8577 5.68068 76.9823C5.96533 77.1064 6.22315 77.2686 6.45194 77.4699C6.68128 77.6713 6.87195 77.9162 7.02502 78.2052L7.17699 76.905H9.80384V80.7884H7.04003C7.04003 80.5 6.98902 80.2447 6.88698 80.0227C6.78902 79.8062 6.64611 79.6139 6.46804 79.4585C6.28433 79.301 6.07117 79.1824 5.84127 79.1102C5.59688 79.0318 5.34194 78.9926 5.08561 78.9938C4.97336 78.9938 4.85626 79.0126 4.73381 79.048C4.61189 79.0845 4.49752 79.1352 4.3901 79.2027C4.28376 79.2701 4.19673 79.3551 4.13067 79.4585C4.06352 79.5644 4.02913 79.688 4.03187 79.8138C4.03187 80.0826 4.18171 80.3036 4.48248 80.4794C4.78217 80.6546 5.15649 80.8199 5.60495 80.9744C6.05234 81.129 6.53572 81.2968 7.05508 81.4774C7.57443 81.6581 8.05834 81.8828 8.50572 82.1505C8.94158 82.4076 9.32306 82.7494 9.62824 83.1562C9.929 83.5584 10.0783 84.0637 10.0783 84.6721C10.0783 85.2816 9.9537 85.7917 9.70396 86.2042C9.4613 86.6099 9.133 86.9561 8.7426 87.2179C8.35053 87.4808 7.91549 87.6697 7.43642 87.7829C6.95842 87.8955 6.49062 87.9526 6.03196 87.9526C5.64526 87.9526 5.28861 87.9107 4.96314 87.8291C4.65707 87.7534 4.35998 87.6444 4.07698 87.5041C3.82495 87.378 3.58709 87.2249 3.3675 87.0471C3.17521 86.8929 2.99884 86.7192 2.84114 86.5289L2.67196 87.7207L0 87.7201Z" fill="#6A6A6A"/>
<path d="M11.7583 76.905H16.7059V78.9473H15.759V81.2843H18.6608V78.9473H17.7596V76.905H22.7228V78.9473H21.8366V85.6779H22.7228V87.7201H17.7602V85.6779H18.6608V83.3422H15.759V85.6779H16.7059V87.7201H11.7583V85.6779H12.5983V78.9473H11.7583V76.905Z" fill="#6A6A6A"/>
<path d="M24.4017 76.905H33.6099V80.3242H30.968V78.9473H28.5248V81.0829H31.4267V83.1408H28.5248V85.6622H30.9686V84.2239H33.6099V87.7201H24.4017V85.6622H25.3642V78.9473H24.4017V76.905Z" fill="#6A6A6A"/>
<path d="M35.2905 76.905H40.2531C41.1387 76.905 41.8568 76.9878 42.4062 77.1521C42.9557 77.3181 43.3859 77.545 43.6963 77.8334C44.0067 78.1224 44.2157 78.4605 44.322 78.8474C44.4294 79.2338 44.4821 79.6488 44.4821 80.0923C44.4846 80.3742 44.4297 80.6536 44.3208 80.9131C44.212 81.1725 44.0515 81.4064 43.8494 81.6002C43.6506 81.7918 43.4159 81.9525 43.1458 82.0803C42.8684 82.212 42.5722 82.2982 42.2682 82.336C42.7993 82.4223 43.2875 82.6835 43.6576 83.0789C43.8413 83.2748 43.9885 83.4964 44.1007 83.744C44.2135 83.9916 44.2683 84.2548 44.2683 84.5329C44.2683 84.8632 44.2941 85.1211 44.3456 85.3056C44.3961 85.4928 44.4928 85.5854 44.6356 85.5854C44.8698 85.5854 44.9864 85.4199 44.9864 85.0901V84.5791H46.01V85.4302C46.01 85.7507 45.9741 86.0599 45.9026 86.3592C45.8374 86.6456 45.7123 86.9146 45.5358 87.1478C45.353 87.3833 45.1178 87.5715 44.8494 87.6973C44.5642 87.8366 44.2076 87.9059 43.7806 87.9059C42.7725 87.9059 42.026 87.6539 41.5431 87.1478C41.0592 86.6428 40.8181 85.9359 40.8181 85.0282C40.8181 84.6772 40.8031 84.3886 40.7719 84.1622C40.7413 83.9348 40.672 83.7568 40.5656 83.6279C40.4582 83.4994 40.3041 83.4091 40.1 83.3574C39.8964 83.3051 39.6274 83.2798 39.2906 83.2798V85.6779H40.2219V87.7201H35.2905V85.6779H36.1444V78.9322H35.2905V76.905ZM39.2906 78.9165V81.5471H39.9781C40.4255 81.5471 40.7821 81.4415 41.0469 81.2298C41.3111 81.0181 41.4438 80.7067 41.4438 80.2937C41.4438 79.8289 41.324 79.4841 41.085 79.2571C40.8455 79.0307 40.5017 78.9165 40.0538 78.9165H39.2906Z" fill="#6A6A6A"/>
<path d="M47.4602 76.905H52.5302V78.9473H51.5833V85.6627H52.5296V87.7196H47.4602V85.6627H48.4226V78.9473H47.4602V76.905Z" fill="#6A6A6A"/>
<path d="M54.2097 76.905H63.3416V80.3242H60.6385V78.9473H58.3323V81.6406H61.2336V83.6975H58.3323V85.6622H59.8893V87.7201H54.2086V85.6622H55.156V78.9473H54.2086L54.2097 76.905Z" fill="#6A6A6A"/>
<path d="M64.868 76.905H74V80.3242H71.2974V78.9473H68.9912V81.6406H71.8925V83.6975H68.9912V85.6622H70.5487V87.7201H64.868V85.6622H65.8154V78.9473H64.868V76.905Z" fill="#6A6A6A"/>
</svg>
